<?xml version="1.0" encoding="UTF-8"?>
<svg id="Ebene_1" data-name="Ebene 1" xmlns="http://www.w3.org/2000/svg" viewBox="0 0 42.95 41.7">
  <defs>
    <style>
      .cls-1 {
        fill: #fff;
      }

      .cls-2 {
        fill: #009eb0;
      }

      .cls-3 {
        fill: #2b3a50;
      }
    </style>
  </defs>
  <path class="cls-3" d="M8.89.33c.67.23,2.34,2.11,2.34,2.11,0,0,1.16,2.03,1.17,2.93,0,.04,0,.08,0,.12.37.66,2.42-.63,3.04-.7.66,0,1.33.01,1.99,0,.67.15,1.28.41,1.85.8,2.13-.57,4.27-.07,5.69,1.62.16,0,.55.79.72.97,1.24.44,2.46,1.06,2.93,2.31.33.93.49,1.91.45,2.94.95.68,1.36,1.61,1.76,2.69.17,1.21.12,2.47-.31,3.6,0,0-.11.32.13.52s.26.48.36.69c.2.16,6.95-1.03,7.14-1.06.61-.13,3.83-.61,4.26-.42.43.19.51,1.19.53,1.26.04.65-.57,2.15-.59,2.22-.04.42-.35,1.13-.35,1.17.04.25-.35,1.17-.47,1.29,0,.04-.43,1.52-.47,1.64.01.57-4.16,12.3-4.4,12.51-.46.41-5.73.92-6.76,1.08-2.02.31-4.09.71-6.08.93-.76.08-2.06.55-2.19-.66-.02-.24.1-.49.12-.75.35-1.3,1.08-3.83,1.92-5.29.84-1.46.06-1.57-1.28-.8-.94.86-1.91,1.09-2.16,1.05-.47.11-1.36-.11-2.22,0s-2.53.61-3.86.35-2.71-1.61-2.96-1.73c0,0-.83.56-1.81.5-.98-.06-2.46-.66-2.97-1.07-.51-.41-.95-1.47-1.22-2.39-1.61-.48-2.89-1.33-3.33-3.03,0-.04-.56-1.59-.35-2.72.13-.64-.26-1.28-.75-1.7S.05,21.1,0,20.38c-.03-.42.66-2.54,1.16-3.31.61-.45.41-1.04.35-1.93-.16-2.32,1.22-4.14,3.28-5.03.24-.1.61-.09.81-.24.16-.12.62-1.08.94-1.4.33-.34.86-.68,1.29-.87,0,0,1.08-.57.82-.94-.08-.05-1.47-.47-1.87-.82-1.91-.93-3.36-3.6-1.41-5.21,1.25-1.03,2.84-.52,3.51-.29Z"/>
  <path class="cls-1" d="M19.22,8.38c.15.18.66.2.86.04.58-.45,0-1.47.05-1.53,1.44-.39,3.05.2,3.86,1.46-.8.45-2.04.41-1.73,1.68.77.58,1.2-.18,1.94-.3.67-.11,1.48-.02,2.06.34.09.05.65.36.98.83s.4,1.46.39,1.67c0,.48-.48,1.54-.43,1.7.14.51.85.43,1.23.65,1.08.61,1.34,2.85.85,3.88-.1.2-.32.35-.41.53-.29.67.6,1.29.73,1.96-.56.11-1.04.49-1.27,1.01l-3.27,9.02c-.35.63-1.72,1.45-2.68,1.09s-.97.99-1.91,1.23c-.31.08-.91.11-1.23.05-.27-.05-.48-.33-.81-.31s-.77.45-1.13.61c-.63.28-1.35.48-2.04.41-.65-.08-2.54-.61-3.1-1.58s.1-2.14-1.36-1.71c-.31.26-.07.98-.35,1.3-.73.69-2.73.57-3.16-.58-.6-.72-.19-2.4-.88-2.57s-2.96-.82-3.39-2.41c-.15-.57-.21-1.58.12-2.09.22-.32,1.11-.4.69-1.15-.1-.17-1.1-.46-1.47-.79-1.28-1.13-1.14-3.74-.05-4.97.3-.34,1-.61,1.03-.96s-.55-1.49-.57-2.09c-.05-1.39,1.17-3.11,2.58-3.33-.04.56.76.77,1.13.48.19-.15.23-1.19.39-1.6.35-.89,1.51-1.72,2.46-1.87s2.65.06,3.22.89c.34.49.13,1.23.82,1.29,1.17.11.8-1.3.39-1.93-.17-.27-.88-.59-.79-.93.04-.16.77-.79.96-.93,1.27-.87,3.83-1.08,4.82.27.28.38.32,1.11.44,1.25Z"/>
  <path class="cls-2" d="M24.22,37.55l5.39-14.92,11.93-1.82-5.49,17.6c-.61.31-1.26.23-1.92.33-3.25.51-10.67,1.62-10.67,1.62,0,0-.03-.77.06-1.05l.7-1.76Z"/>
  <path class="cls-1" d="M11.35,6.97c-.53-.21-.83-.72-1.34-1.06-1.26-.82-3.98-1.24-4.16-2.98-.2-1.86,1.78-1.78,2.99-1.12,1.44.78,2.31,3.62,2.51,5.15Z"/>
  <path class="cls-3" d="M14.71,16.05c.31.14.16.05.42.12,1.4.38,2.19,1.31,2.71,2.65.23.24.61,0,.93,0,.5,0,.98.05,1.47.07.76-2.63,3.87-3.89,6.08-2.12,3.28,2.63.92,8.23-3.28,7.26-.98-.23-2.24-1.23-2.63-2.17-.13-.33-.29-1.35-.41-1.47s-.35-.11-.5-.18c-.09-.04-.72-.16-.78-.15-.04,0-.59.32-.61.35-.05.07-.19,1.24-.35,1.61-1.43,3.31-6.48,3.01-7.61-.45-.11-.34.01-.73-.26-1.08-.23-.25-2.11-.51-2.59-.86-.33-.24-.19-.71-.05-1.02.42-.04,1.27.18,1.43.23.38.13.91.11,1.33.25l.12-.07c.12-.36.38-1.1.65-1.34.11-.1.67-.72,1.22-1.06.75-.48,1.55-.58,1.64-.61.17-.04.91-.03,1.06.04Z"/>
  <path class="cls-3" d="M7.21,26.95s1.13.57,2.3-.03c.81.08.59,1,1.34,1.48.77.49,1.88-1.36,2.97-1.33,1.39,1.52-3.58,3.7-4.89,1.35-2.19.33-4.16-.92-3.75-3.31.17-1,1.47-2.32,1.97-.85-.73.9-1.17,2.04.07,2.69Z"/>
  <path class="cls-3" d="M6.39,14.81c-.25.3-.64.45-.75,1.01-.16.82.81,1.06.88,1.33,0,.03,0,.63-.02.67-.09.31-1,.59-1.13,1.43-.32,2.03,1.94.95,1.2,2.64-.68.29-1.35,0-1.85-.49-.04-.04-.54-.78-.56-.84-.39-1.17-.03-2.16.71-3.09-.46-.72-.63-1.42-.4-2.27.08-.31,1-1.45,1.31-1.49.44-.05.98.63.59,1.11Z"/>
  <path class="cls-3" d="M10.13,11.4c-.27.33-.5.5-.12.98.71.89,2.1-.15,3.12.04.84.15,2.39,1.26,1.22,1.87-.61.31-.92-.4-1.43-.49-.68-.11-.76.17-1.22.29-2,.52-3.95-1.18-3.03-3.15.65-1.4,2.86-1.13,2.1-.12-.1.13-.43.32-.64.59Z"/>
  <path class="cls-3" d="M17.05,7.84c.86-.19,1.6.45,1.93,1.18.12.27.07.7.27.9.15.15.75.33,1.05.59,1.5,1.29.9,4.54-.8,3.96-.89-.31.29-1.37.37-1.7.25-1.12-.78-1.57-1.85-1.73s.27-1.12-.42-1.57-.98-.17-1.17-.47c-.27-.46.14-1.05.61-1.15Z"/>
  <path class="cls-3" d="M24.19,27.28c.28.28.08,1.44-.09,1.75-.03.05-.36.64-.64.92s-.8.6-1.03.73c-.99.58-2.68.31-3.59-.34-.76-.54-1.29-1.41-.08-1.78.48.1.49.57,1.21.89.28.16,1.84.09,2.11-.08,1.03-.63.81-1.85,1.26-2.14.23-.15.66-.16.86.04Z"/>
  <path class="cls-3" d="M15.18,30.08c.67-.12.73.81,1.31.98.54.16,1.5-.23,1.51.58.04,1.81-4.05.41-3.21-1.34.06-.09.27-.19.38-.21Z"/>
  <path class="cls-3" d="M25.71,13.88q-.71.14-.89-.17c-.04-.06-.47-1.31-.47-1.38-.02-.77.77-.96,1.28-.36.46.55.8,1.76.08,1.9Z"/>
  <path class="cls-3" d="M36.37,31.72c.13.52-.02.85-.53,1-.67.2-1.99.4-2.79.49-.39.04-1.23.1-1.85.17-.87.09-1.76.22-2.57.33-.15.02-1.28.06-1.23-.33-.14-.78.6-.83,1.24-.95,1.68-.3,3.49-.5,5.15-.71.51-.06,2.31-.48,2.58,0Z"/>
  <path class="cls-3" d="M36.39,29.53c-2.17.43-6.82,1.23-7.2,1.11s-.51-.55-.51-.55c-.03-1.32,1.64-1.11,2.28-1.33s5.52-.74,5.73-.79c.15-.03.58,1.38-.3,1.56Z"/>
  <path class="cls-3" d="M38.63,25.2c0,.6-.93.84-1.42.93-1.6.32-4.67.81-6.25.88-.36.02-.74.09-.91-.27-.55-1.14,1.94-1.27,2.57-1.33.23-.02,6.02-1.24,6.02-.22Z"/>
  <path class="cls-3" d="M32.6,36.23s-4.14.8-4.96.96-1.25-.13-1.29-.39c0,0,.03-.72.4-.86s5.5-.94,5.5-.94c.29.02.49.19.61.53s-.25.71-.25.71Z"/>
  <path class="cls-1" d="M11.85,18.28c.22-.23,1.33-.82,1.65-.86.97-.12,1.64-.09,2.35.58,1.65,1.56,1.06,4.7-1.29,5.04-.9.13-1.47.04-2.17-.53-.49-.39-.95-1.01-1.04-1.65s.08-2.14.5-2.58Z"/>
  <path class="cls-1" d="M22.27,22.29c-1.03-.76-1.06-2.81-.38-3.86.42-.64.71-1.04,1.45-1.25s1.81.09,2.56.94c2.05,2.34-.82,6.23-3.64,4.16Z"/>
  <path class="cls-3" d="M14.71,19.66c1.41-.27,1.76,2.36.38,2.73-1.57.43-2.01-2.42-.38-2.73Z"/>
  <path class="cls-3" d="M22.62,20.15c.1-.2.59-.59.85-.62,1.73-.22,1.86,3.02-.22,2.55-.74-.17-.94-1.32-.63-1.92Z"/>
</svg>