<?xml version="1.0" encoding="UTF-8"?>
<svg id="Ebene_1" data-name="Ebene 1" xmlns="http://www.w3.org/2000/svg" viewBox="0 0 312.17 305.82">
  <defs>
    <style>
      .cls-1 {
        fill: #fff;
      }

      .cls-2 {
        fill: #009eb0;
      }

      .cls-3 {
        fill: #2b3a50;
      }
    </style>
  </defs>
  <path class="cls-3" d="M93.9,2.12c4.29,1.45,15,13.5,15,13.5,0,0,7.46,13.04,7.5,18.75.06.23-.06.51,0,.75,2.39,4.2,15.49-4.02,19.5-4.5,4.24-.03,8.51.07,12.75,0,4.26.94,8.22,2.64,11.87,5.1,13.66-3.68,27.34-.43,36.46,10.38,1-.04,3.54,5.04,4.62,6.24,7.95,2.84,15.75,6.77,18.76,14.82,2.14,5.95,3.11,12.24,2.9,18.87,6.08,4.38,8.7,10.3,11.27,17.23,1.07,7.76.77,15.86-1.98,23.05,0,0-.7,2.03.85,3.33s1.64,3.05,2.33,4.41c1.28,1.01,44.56-6.57,45.74-6.82,3.91-.82,24.51-3.9,27.31-2.67,2.73,1.2,3.29,7.6,3.37,8.07.27,4.16-3.67,13.78-3.75,14.25-.28,2.68-2.24,7.25-2.25,7.5.28,1.6-2.22,7.49-3,8.25-.03.25-2.75,9.71-3,10.5.08,3.67-26.63,78.81-28.19,80.18-2.96,2.6-36.7,5.9-43.35,6.91-12.97,1.97-26.21,4.57-38.96,5.98-4.89.54-13.22,3.51-14.01-4.26-.16-1.51.63-3.17.75-4.81,2.22-8.35,6.9-24.55,12.28-33.89,5.38-9.33.4-10.09-8.18-5.12-6.04,5.51-12.24,6.99-13.85,6.75-3.01.68-8.69-.71-14.25,0s-16.23,3.93-24.75,2.25-17.34-10.3-18.99-11.12c0,0-5.3,3.62-11.6,3.2-6.3-.41-15.74-4.2-19.01-6.85-3.27-2.65-6.12-9.45-7.79-15.31-10.34-3.1-18.53-8.55-21.36-19.42-.02-.25-3.6-10.22-2.27-17.44.86-4.13-1.64-8.19-4.77-10.89s-4.57-14.06-4.9-18.68c-.2-2.7,4.24-16.26,7.45-21.24,3.9-2.88,2.61-6.66,2.22-12.35-1-14.86,7.84-26.52,21.04-32.26,1.54-.67,3.91-.59,5.2-1.55,1.05-.78,3.95-6.92,6-9,2.13-2.17,5.5-4.33,8.29-5.59,0,0,6.94-3.63,5.25-6-.51-.29-9.4-3.01-12-5.25-12.26-5.97-21.51-23.05-9.02-33.39,7.98-6.61,18.22-3.31,22.52-1.86Z"/>
  <path class="cls-1" d="M160.08,53.68c.96,1.14,4.22,1.26,5.52.25,3.72-2.89-.04-9.42.3-9.81,9.25-2.5,19.56,1.28,24.73,9.37-5.1,2.89-13.09,2.61-11.1,10.75,4.91,3.69,7.72-1.14,12.42-1.95,4.27-.73,9.51-.12,13.21,2.18.56.35,4.15,2.31,6.27,5.29s2.54,9.37,2.52,10.72c-.05,3.08-3.05,9.86-2.76,10.9.91,3.29,5.42,2.76,7.9,4.16,6.95,3.92,8.6,18.26,5.46,24.85-.62,1.31-2.07,2.21-2.6,3.41-1.89,4.29,3.82,8.29,4.69,12.54-3.58.71-6.65,3.17-8.16,6.48l-20.94,57.81c-2.22,4.06-11.03,9.32-17.15,6.98s-6.2,6.32-12.24,7.89c-2.01.52-5.85.68-7.85.31-1.76-.33-3.07-2.1-5.18-1.99s-4.93,2.87-7.25,3.89c-4.05,1.78-8.63,3.08-13.08,2.6-4.14-.48-16.27-3.93-19.88-10.11s.65-13.73-8.69-10.95c-1.97,1.67-.44,6.26-2.23,8.32-4.71,4.41-17.49,3.62-20.24-3.73-3.88-4.59-1.22-15.38-5.62-16.5s-18.96-5.28-21.7-15.42c-.99-3.66-1.38-10.15.78-13.38,1.38-2.07,7.09-2.58,4.42-7.37-.62-1.11-7.02-2.96-9.39-5.06-8.22-7.26-7.3-23.94-.34-31.88,1.9-2.17,6.4-3.91,6.58-6.14s-3.51-9.52-3.64-13.37c-.3-8.9,7.52-19.92,16.52-21.36-.29,3.6,4.89,4.93,7.23,3.05,1.22-.98,1.5-7.62,2.52-10.23,2.24-5.73,9.67-11.04,15.75-12.01,5.91-.94,16.96.37,20.63,5.69,2.17,3.14.83,7.88,5.27,8.28,7.47.67,5.11-8.31,2.53-12.36-1.09-1.71-5.64-3.79-5.06-5.94.28-1.04,4.91-5.09,6.12-5.93,8.11-5.6,24.52-6.94,30.88,1.72,1.79,2.44,2.07,7.11,2.84,8.02Z"/>
  <path class="cls-2" d="M192.15,240.62l34.52-95.61,76.48-11.64-35.21,112.75c-3.88,1.97-8.07,1.46-12.29,2.12-20.81,3.25-68.39,10.37-68.39,10.37,0,0-.18-4.95.39-6.75l4.5-11.25Z"/>
  <path class="cls-1" d="M109.65,44.11c-3.42-1.32-5.32-4.62-8.6-6.77-8.06-5.28-25.49-7.95-26.67-19.09-1.26-11.91,11.4-11.4,19.17-7.17,9.2,5.01,14.77,23.19,16.09,33.02Z"/>
  <path class="cls-3" d="M131.21,102.87c1.96.89,1.01.32,2.68.77,9,2.43,14.05,8.41,17.37,17,1.48,1.57,3.94-.03,5.99-.05,3.21-.04,6.27.34,9.44.47,4.84-16.85,24.82-24.92,38.98-13.57,21.04,16.85,5.87,52.77-21.05,46.55-6.29-1.45-14.38-7.85-16.83-13.92-.84-2.09-1.85-8.66-2.6-9.4s-2.27-.69-3.21-1.16c-.55-.28-4.62-1.03-4.98-.94-.24.06-3.79,2.04-3.92,2.22-.31.43-1.23,7.96-2.25,10.32-9.18,21.24-41.55,19.29-48.74-2.91-.71-2.19.07-4.68-1.64-6.91-1.5-1.62-13.52-3.29-16.6-5.53-2.13-1.55-1.21-4.55-.31-6.56,2.68-.26,8.14,1.14,9.14,1.49,2.43.85,5.82.73,8.5,1.61l.8-.42c.76-2.29,2.46-7.04,4.13-8.61.7-.65,4.26-4.59,7.8-6.82,4.82-3.05,9.92-3.73,10.5-3.88,1.1-.27,5.8-.21,6.8.24Z"/>
  <path class="cls-3" d="M83.12,172.68c.21.11,7.25,3.65,14.76-.18,5.21.51,3.76,6.43,8.57,9.46,4.95,3.11,12.05-8.69,19.03-8.53,8.92,9.76-22.96,23.73-31.35,8.68-14.01,2.14-26.64-5.87-24.04-21.18,1.09-6.39,9.45-14.87,12.61-5.47-4.69,5.76-7.51,13.07.42,17.23Z"/>
  <path class="cls-3" d="M77.92,94.9c-1.58,1.91-4.1,2.89-4.79,6.47-1.01,5.27,5.16,6.8,5.66,8.5.06.21-.06,4.07-.11,4.27-.57,1.98-6.39,3.76-7.23,9.15-2.02,13.02,12.46,6.08,7.7,16.89-4.38,1.88-8.66,0-11.84-3.11-.23-.23-3.43-4.97-3.57-5.39-2.52-7.52-.21-13.85,4.55-19.82-2.94-4.63-4.02-9.08-2.55-14.52.54-2.01,6.44-9.31,8.42-9.55,2.81-.34,6.3,4.05,3.76,7.12Z"/>
  <path class="cls-3" d="M101.84,73.06c-1.7,2.1-3.2,3.23-.76,6.26,4.58,5.68,13.45-.94,20.02.23,5.38.95,15.34,8.1,7.82,11.97-3.91,2.01-5.92-2.59-9.19-3.11-4.38-.69-4.9,1.11-7.8,1.86-12.82,3.33-25.33-7.55-19.44-20.19,4.19-9,18.3-7.27,13.47-.77-.62.84-2.74,2.06-4.12,3.76Z"/>
  <path class="cls-3" d="M146.2,50.26c5.53-1.21,10.28,2.9,12.37,7.57.78,1.76.43,4.45,1.72,5.78.93.96,4.78,2.09,6.73,3.77,9.61,8.29,5.78,29.12-5.11,25.36-5.71-1.97,1.88-8.78,2.36-10.92,1.61-7.17-4.98-10.06-11.85-11.09s1.72-7.19-2.67-10.08-6.31-1.08-7.47-3.03c-1.76-2.96.9-6.71,3.93-7.37Z"/>
  <path class="cls-3" d="M191.97,174.8c1.77,1.77.5,9.22-.59,11.24-.17.32-2.28,4.07-4.07,5.87s-5.11,3.83-6.58,4.7c-6.35,3.72-17.17,1.98-23.04-2.16-4.89-3.45-8.26-9.03-.54-11.42,3.09.65,3.15,3.63,7.73,5.73,1.78,1.05,11.77.6,13.55-.48,6.62-4.04,5.21-11.88,8.04-13.7,1.49-.96,4.24-1.03,5.5.23Z"/>
  <path class="cls-3" d="M134.22,192.73c4.27-.8,4.68,5.16,8.4,6.3,3.44,1.05,9.58-1.49,9.7,3.69.25,11.58-25.93,2.64-20.54-8.62.35-.6,1.73-1.24,2.44-1.37Z"/>
  <path class="cls-3" d="M201.7,88.93q-4.56.89-5.68-1.06c-.23-.41-3.02-8.39-3.03-8.86-.15-4.95,4.92-6.17,8.17-2.28,2.97,3.55,5.1,11.31.54,12.19Z"/>
  <path class="cls-3" d="M269.98,203.27c.85,3.3-.1,5.45-3.37,6.44-4.28,1.29-12.76,2.57-17.88,3.12-2.47.26-7.86.67-11.82,1.06-5.6.56-11.26,1.42-16.47,2.1-.97.13-8.18.39-7.88-2.11-.91-5,3.86-5.33,7.93-6.06,10.73-1.94,22.39-3.2,32.99-4.52,3.26-.41,14.79-3.08,16.51-.04Z"/>
  <path class="cls-3" d="M270.17,189.25c-13.91,2.78-43.72,7.87-46.15,7.1s-3.27-3.51-3.27-3.51c-.19-8.48,10.53-7.1,14.63-8.52s35.37-4.77,36.73-5.04c.99-.2,3.69,8.84-1.94,9.97Z"/>
  <path class="cls-3" d="M284.48,161.49c-.02,3.86-5.96,5.37-9.09,5.98-10.28,2.03-29.91,5.17-40.08,5.66-2.32.11-4.75.59-5.86-1.72-3.51-7.3,12.43-8.14,16.46-8.52,1.46-.14,38.6-7.97,38.57-1.41Z"/>
  <path class="cls-3" d="M245.22,232.18s-26.53,5.13-31.81,6.13-8.02-.82-8.28-2.53c0,0,.17-4.62,2.58-5.51s35.21-6.02,35.21-6.02c1.86.13,3.11,1.2,3.88,3.39s-1.59,4.53-1.59,4.53Z"/>
  <path class="cls-1" d="M112.91,117.13c1.38-1.44,8.55-5.28,10.6-5.53,6.24-.76,10.5-.57,15.04,3.74,10.55,10.02,6.77,30.1-8.25,32.29-5.75.84-9.4.23-13.92-3.38-3.14-2.51-6.1-6.49-6.67-10.58s.49-13.72,3.19-16.55Z"/>
  <path class="cls-1" d="M179.68,142.82c-6.62-4.86-6.79-18-2.4-24.71,2.67-4.07,4.57-6.68,9.31-8.01s11.59.56,16.4,6.06c13.12,15.01-5.26,39.92-23.3,26.66Z"/>
  <path class="cls-3" d="M131.22,126.01c9.01-1.74,11.27,15.11,2.46,17.5-10.09,2.74-12.85-15.49-2.46-17.5Z"/>
  <path class="cls-3" d="M181.93,129.13c.67-1.27,3.81-3.79,5.42-4,11.08-1.42,11.94,19.33-1.41,16.32-4.75-1.07-6.06-8.47-4.01-12.32Z"/>
  <g>
    <path class="cls-3" d="M0,262.08h11.16v33.24h19.98v9.6H0v-42.84Z"/>
    <path class="cls-3" d="M73.98,287.22c0,12.42-5.7,18.6-18.66,18.6s-18.66-6.18-18.66-18.6v-25.14h11.16v25.8c0,5.52,1.98,8.34,7.5,8.34s7.5-2.82,7.5-8.34v-25.8h11.16v25.14Z"/>
    <path class="cls-3" d="M81.72,262.08h31.56v8.94h-20.4v8.76h17.64v8.64h-17.64v16.5h-11.16v-42.84Z"/>
    <path class="cls-3" d="M127.02,262.08h11.34l16.02,42.84h-11.64l-2.64-7.68h-14.94l-2.7,7.68h-11.46l16.02-42.84ZM127.74,288.96h9.72l-4.74-15h-.12l-4.86,15Z"/>
  </g>
</svg>